<mxfile host="app.diagrams.net" agent="Mozilla/5.0 (Windows NT 10.0; Win64; x64) AppleWebKit/537.36 (KHTML, like Gecko) Chrome/131.0.0.0 Safari/537.36" version="25.0.1">
  <diagram name="Page-1" id="gKLFDl5aLElbFjpC-I8P">
    <mxGraphModel>
      <root>
        <mxCell id="0" />
        <mxCell id="1" parent="0" />
        <mxCell id="2" value="StudentOrgs" style="whiteSpace=wrap;strokeWidth=2;" vertex="1" parent="1">
          <mxGeometry x="638" y="326" width="211" height="317" as="geometry" />
        </mxCell>
        <mxCell id="3" value="Sport" style="whiteSpace=wrap;strokeWidth=2;" vertex="1" parent="1">
          <mxGeometry x="638" y="663" width="211" height="317" as="geometry" />
        </mxCell>
        <mxCell id="4" value="Housing" style="whiteSpace=wrap;strokeWidth=2;" vertex="1" parent="1">
          <mxGeometry x="638" y="1000" width="211" height="317" as="geometry" />
        </mxCell>
        <mxCell id="5" value="Courses" style="whiteSpace=wrap;strokeWidth=2;" vertex="1" parent="1">
          <mxGeometry x="638" y="1952" width="211" height="317" as="geometry" />
        </mxCell>
        <mxCell id="6" value="Departments" style="whiteSpace=wrap;strokeWidth=2;" vertex="1" parent="1">
          <mxGeometry x="638" y="2289" width="211" height="317" as="geometry" />
        </mxCell>
        <mxCell id="7" value="Events" style="whiteSpace=wrap;strokeWidth=2;" vertex="1" parent="1">
          <mxGeometry x="348" y="8" width="239" height="317" as="geometry" />
        </mxCell>
        <mxCell id="8" value="CampusLife" style="whiteSpace=wrap;strokeWidth=2;" vertex="1" parent="1">
          <mxGeometry x="348" y="345" width="239" height="932" as="geometry" />
        </mxCell>
        <mxCell id="9" value="Admission" style="whiteSpace=wrap;strokeWidth=2;" vertex="1" parent="1">
          <mxGeometry x="348" y="1297" width="239" height="317" as="geometry" />
        </mxCell>
        <mxCell id="10" value="Academics" style="whiteSpace=wrap;strokeWidth=2;" vertex="1" parent="1">
          <mxGeometry x="348" y="1971" width="239" height="635" as="geometry" />
        </mxCell>
        <mxCell id="11" value="About" style="whiteSpace=wrap;strokeWidth=2;" vertex="1" parent="1">
          <mxGeometry x="348" y="1634" width="239" height="317" as="geometry" />
        </mxCell>
        <mxCell id="12" value="Home" style="whiteSpace=wrap;strokeWidth=2;" vertex="1" parent="1">
          <mxGeometry x="8" y="18" width="290" height="2548" as="geometry" />
        </mxCell>
        <mxCell id="13" value="Home" style="rounded=1;arcSize=40;strokeWidth=2" vertex="1" parent="1">
          <mxGeometry x="33" y="1431" width="71" height="49" as="geometry" />
        </mxCell>
        <mxCell id="14" value="About" style="rounded=1;arcSize=40;strokeWidth=2" vertex="1" parent="1">
          <mxGeometry x="177" y="1768" width="74" height="49" as="geometry" />
        </mxCell>
        <mxCell id="15" value="Academics" style="rounded=1;arcSize=40;strokeWidth=2" vertex="1" parent="1">
          <mxGeometry x="160" y="2423" width="107" height="49" as="geometry" />
        </mxCell>
        <mxCell id="16" value="Admission" style="rounded=1;arcSize=40;strokeWidth=2" vertex="1" parent="1">
          <mxGeometry x="163" y="1431" width="102" height="49" as="geometry" />
        </mxCell>
        <mxCell id="17" value="Campus-Life" style="rounded=1;arcSize=40;strokeWidth=2" vertex="1" parent="1">
          <mxGeometry x="154" y="797" width="119" height="49" as="geometry" />
        </mxCell>
        <mxCell id="18" value="Events" style="rounded=1;arcSize=40;strokeWidth=2" vertex="1" parent="1">
          <mxGeometry x="175" y="142" width="77" height="49" as="geometry" />
        </mxCell>
        <mxCell id="19" value="History" style="rounded=1;arcSize=40;strokeWidth=2" vertex="1" parent="1">
          <mxGeometry x="427" y="1669" width="82" height="49" as="geometry" />
        </mxCell>
        <mxCell id="20" value="Mission" style="rounded=1;arcSize=40;strokeWidth=2" vertex="1" parent="1">
          <mxGeometry x="427" y="1768" width="82" height="49" as="geometry" />
        </mxCell>
        <mxCell id="21" value="Contact" style="rounded=1;arcSize=40;strokeWidth=2" vertex="1" parent="1">
          <mxGeometry x="425" y="1867" width="87" height="49" as="geometry" />
        </mxCell>
        <mxCell id="22" value="Departments" style="rounded=1;arcSize=40;strokeWidth=2" vertex="1" parent="1">
          <mxGeometry x="407" y="2423" width="123" height="49" as="geometry" />
        </mxCell>
        <mxCell id="23" value="Courses" style="rounded=1;arcSize=40;strokeWidth=2" vertex="1" parent="1">
          <mxGeometry x="425" y="2086" width="85" height="49" as="geometry" />
        </mxCell>
        <mxCell id="24" value="Calendar" style="rounded=1;arcSize=40;strokeWidth=2" vertex="1" parent="1">
          <mxGeometry x="421" y="2522" width="94" height="49" as="geometry" />
        </mxCell>
        <mxCell id="25" value="Requirements" style="rounded=1;arcSize=40;strokeWidth=2" vertex="1" parent="1">
          <mxGeometry x="404" y="1332" width="129" height="49" as="geometry" />
        </mxCell>
        <mxCell id="26" value="Application" style="rounded=1;arcSize=40;strokeWidth=2" vertex="1" parent="1">
          <mxGeometry x="412" y="1431" width="112" height="49" as="geometry" />
        </mxCell>
        <mxCell id="27" value="Dates" style="rounded=1;arcSize=40;strokeWidth=2" vertex="1" parent="1">
          <mxGeometry x="433" y="1530" width="70" height="49" as="geometry" />
        </mxCell>
        <mxCell id="28" value="Housing" style="rounded=1;arcSize=40;strokeWidth=2" vertex="1" parent="1">
          <mxGeometry x="425" y="1134" width="86" height="49" as="geometry" />
        </mxCell>
        <mxCell id="29" value="Student-Organizations" style="rounded=1;arcSize=40;strokeWidth=2" vertex="1" parent="1">
          <mxGeometry x="373" y="460" width="189" height="49" as="geometry" />
        </mxCell>
        <mxCell id="30" value="Sports" style="rounded=1;arcSize=40;strokeWidth=2" vertex="1" parent="1">
          <mxGeometry x="430" y="797" width="75" height="49" as="geometry" />
        </mxCell>
        <mxCell id="31" value="Calendar" style="rounded=1;arcSize=40;strokeWidth=2" vertex="1" parent="1">
          <mxGeometry x="421" y="43" width="94" height="49" as="geometry" />
        </mxCell>
        <mxCell id="32" value="Past-Events" style="rounded=1;arcSize=40;strokeWidth=2" vertex="1" parent="1">
          <mxGeometry x="412" y="142" width="112" height="49" as="geometry" />
        </mxCell>
        <mxCell id="33" value="Upcoming-Events" style="rounded=1;arcSize=40;strokeWidth=2" vertex="1" parent="1">
          <mxGeometry x="391" y="241" width="154" height="49" as="geometry" />
        </mxCell>
        <mxCell id="34" value="Computer-Science" style="rounded=1;arcSize=40;strokeWidth=2" vertex="1" parent="1">
          <mxGeometry x="663" y="2324" width="161" height="49" as="geometry" />
        </mxCell>
        <mxCell id="35" value="Mathematics" style="rounded=1;arcSize=40;strokeWidth=2" vertex="1" parent="1">
          <mxGeometry x="682" y="2423" width="122" height="49" as="geometry" />
        </mxCell>
        <mxCell id="36" value="Biology" style="rounded=1;arcSize=40;strokeWidth=2" vertex="1" parent="1">
          <mxGeometry x="702" y="2522" width="83" height="49" as="geometry" />
        </mxCell>
        <mxCell id="37" value="Data-Structures" style="rounded=1;arcSize=40;strokeWidth=2" vertex="1" parent="1">
          <mxGeometry x="672" y="1987" width="143" height="49" as="geometry" />
        </mxCell>
        <mxCell id="38" value="Calculus" style="rounded=1;arcSize=40;strokeWidth=2" vertex="1" parent="1">
          <mxGeometry x="698" y="2086" width="90" height="49" as="geometry" />
        </mxCell>
        <mxCell id="39" value="Molecular-Biology" style="rounded=1;arcSize=40;strokeWidth=2" vertex="1" parent="1">
          <mxGeometry x="664" y="2185" width="159" height="49" as="geometry" />
        </mxCell>
        <mxCell id="40" value="Floor-Plans" style="rounded=1;arcSize=40;strokeWidth=2" vertex="1" parent="1">
          <mxGeometry x="688" y="1035" width="110" height="49" as="geometry" />
        </mxCell>
        <mxCell id="41" value="Room-Rentals" style="rounded=1;arcSize=40;strokeWidth=2" vertex="1" parent="1">
          <mxGeometry x="679" y="1134" width="128" height="49" as="geometry" />
        </mxCell>
        <mxCell id="42" value="Amenities" style="rounded=1;arcSize=40;strokeWidth=2" vertex="1" parent="1">
          <mxGeometry x="692" y="1233" width="102" height="49" as="geometry" />
        </mxCell>
        <mxCell id="43" value="Football" style="rounded=1;arcSize=40;strokeWidth=2" vertex="1" parent="1">
          <mxGeometry x="698" y="698" width="89" height="49" as="geometry" />
        </mxCell>
        <mxCell id="44" value="Basketball" style="rounded=1;arcSize=40;strokeWidth=2" vertex="1" parent="1">
          <mxGeometry x="691" y="797" width="104" height="49" as="geometry" />
        </mxCell>
        <mxCell id="45" value="Soccer" style="rounded=1;arcSize=40;strokeWidth=2" vertex="1" parent="1">
          <mxGeometry x="704" y="896" width="78" height="49" as="geometry" />
        </mxCell>
        <mxCell id="46" value="Drama-Club" style="rounded=1;arcSize=40;strokeWidth=2" vertex="1" parent="1">
          <mxGeometry x="686" y="361" width="114" height="49" as="geometry" />
        </mxCell>
        <mxCell id="47" value="Art-Society" style="rounded=1;arcSize=40;strokeWidth=2" vertex="1" parent="1">
          <mxGeometry x="687" y="460" width="112" height="49" as="geometry" />
        </mxCell>
        <mxCell id="48" value="Chess-Club" style="rounded=1;arcSize=40;strokeWidth=2" vertex="1" parent="1">
          <mxGeometry x="689" y="559" width="108" height="49" as="geometry" />
        </mxCell>
        <mxCell id="49" value="" style="curved=1;startArrow=none;endArrow=block;exitX=0.56;exitY=1;entryX=0;entryY=0.5;" edge="1" parent="1" source="13" target="14">
          <mxGeometry relative="1" as="geometry">
            <Array as="points">
              <mxPoint x="129" y="1793" />
            </Array>
          </mxGeometry>
        </mxCell>
        <mxCell id="50" value="" style="curved=1;startArrow=none;endArrow=block;exitX=0.52;exitY=1;entryX=0;entryY=0.49;" edge="1" parent="1" source="13" target="15">
          <mxGeometry relative="1" as="geometry">
            <Array as="points">
              <mxPoint x="129" y="2447" />
            </Array>
          </mxGeometry>
        </mxCell>
        <mxCell id="51" value="" style="curved=1;startArrow=none;endArrow=block;exitX=1;exitY=0.5;entryX=0;entryY=0.5;" edge="1" parent="1" source="13" target="16">
          <mxGeometry relative="1" as="geometry">
            <Array as="points" />
          </mxGeometry>
        </mxCell>
        <mxCell id="52" value="" style="curved=1;startArrow=none;endArrow=block;exitX=0.54;exitY=0;entryX=0;entryY=0.49;" edge="1" parent="1" source="13" target="17">
          <mxGeometry relative="1" as="geometry">
            <Array as="points">
              <mxPoint x="129" y="821" />
            </Array>
          </mxGeometry>
        </mxCell>
        <mxCell id="53" value="" style="curved=1;startArrow=none;endArrow=block;exitX=0.52;exitY=0;entryX=0;entryY=0.5;" edge="1" parent="1" source="13" target="18">
          <mxGeometry relative="1" as="geometry">
            <Array as="points">
              <mxPoint x="129" y="167" />
            </Array>
          </mxGeometry>
        </mxCell>
        <mxCell id="54" value="" style="curved=1;startArrow=none;endArrow=block;exitX=0.78;exitY=0;entryX=0;entryY=0.5;" edge="1" parent="1" source="14" target="19">
          <mxGeometry relative="1" as="geometry">
            <Array as="points">
              <mxPoint x="298" y="1694" />
            </Array>
          </mxGeometry>
        </mxCell>
        <mxCell id="55" value="" style="curved=1;startArrow=none;endArrow=block;exitX=0.99;exitY=0.5;entryX=0;entryY=0.5;" edge="1" parent="1" source="14" target="20">
          <mxGeometry relative="1" as="geometry">
            <Array as="points" />
          </mxGeometry>
        </mxCell>
        <mxCell id="56" value="" style="curved=1;startArrow=none;endArrow=block;exitX=0.78;exitY=1;entryX=0;entryY=0.5;" edge="1" parent="1" source="14" target="21">
          <mxGeometry relative="1" as="geometry">
            <Array as="points">
              <mxPoint x="298" y="1892" />
            </Array>
          </mxGeometry>
        </mxCell>
        <mxCell id="57" value="" style="curved=1;startArrow=none;endArrow=block;exitX=1;exitY=0.49;entryX=0;entryY=0.49;" edge="1" parent="1" source="15" target="22">
          <mxGeometry relative="1" as="geometry">
            <Array as="points" />
          </mxGeometry>
        </mxCell>
        <mxCell id="58" value="" style="curved=1;startArrow=none;endArrow=block;exitX=0.56;exitY=-0.01;entryX=0;entryY=0.49;" edge="1" parent="1" source="15" target="23">
          <mxGeometry relative="1" as="geometry">
            <Array as="points">
              <mxPoint x="298" y="2110" />
            </Array>
          </mxGeometry>
        </mxCell>
        <mxCell id="59" value="" style="curved=1;startArrow=none;endArrow=block;exitX=0.7;exitY=0.99;entryX=0;entryY=0.49;" edge="1" parent="1" source="15" target="24">
          <mxGeometry relative="1" as="geometry">
            <Array as="points">
              <mxPoint x="298" y="2546" />
            </Array>
          </mxGeometry>
        </mxCell>
        <mxCell id="60" value="" style="curved=1;startArrow=none;endArrow=block;exitX=0.7;exitY=0;entryX=0;entryY=0.5;" edge="1" parent="1" source="16" target="25">
          <mxGeometry relative="1" as="geometry">
            <Array as="points">
              <mxPoint x="298" y="1357" />
            </Array>
          </mxGeometry>
        </mxCell>
        <mxCell id="61" value="" style="curved=1;startArrow=none;endArrow=block;exitX=1;exitY=0.5;entryX=0;entryY=0.5;" edge="1" parent="1" source="16" target="26">
          <mxGeometry relative="1" as="geometry">
            <Array as="points" />
          </mxGeometry>
        </mxCell>
        <mxCell id="62" value="" style="curved=1;startArrow=none;endArrow=block;exitX=0.7;exitY=1;entryX=0;entryY=0.5;" edge="1" parent="1" source="16" target="27">
          <mxGeometry relative="1" as="geometry">
            <Array as="points">
              <mxPoint x="298" y="1555" />
            </Array>
          </mxGeometry>
        </mxCell>
        <mxCell id="63" value="" style="curved=1;startArrow=none;endArrow=block;exitX=0.55;exitY=0.99;entryX=0;entryY=0.49;" edge="1" parent="1" source="17" target="28">
          <mxGeometry relative="1" as="geometry">
            <Array as="points">
              <mxPoint x="298" y="1158" />
            </Array>
          </mxGeometry>
        </mxCell>
        <mxCell id="64" value="" style="curved=1;startArrow=none;endArrow=block;exitX=0.55;exitY=-0.01;entryX=0;entryY=0.49;" edge="1" parent="1" source="17" target="29">
          <mxGeometry relative="1" as="geometry">
            <Array as="points">
              <mxPoint x="298" y="484" />
            </Array>
          </mxGeometry>
        </mxCell>
        <mxCell id="65" value="" style="curved=1;startArrow=none;endArrow=block;exitX=1;exitY=0.49;entryX=0.01;entryY=0.49;" edge="1" parent="1" source="17" target="30">
          <mxGeometry relative="1" as="geometry">
            <Array as="points" />
          </mxGeometry>
        </mxCell>
        <mxCell id="66" value="" style="curved=1;startArrow=none;endArrow=block;exitX=0.77;exitY=0;entryX=0;entryY=0.5;" edge="1" parent="1" source="18" target="31">
          <mxGeometry relative="1" as="geometry">
            <Array as="points">
              <mxPoint x="298" y="68" />
            </Array>
          </mxGeometry>
        </mxCell>
        <mxCell id="67" value="" style="curved=1;startArrow=none;endArrow=block;exitX=1;exitY=0.5;entryX=0;entryY=0.5;" edge="1" parent="1" source="18" target="32">
          <mxGeometry relative="1" as="geometry">
            <Array as="points" />
          </mxGeometry>
        </mxCell>
        <mxCell id="68" value="" style="curved=1;startArrow=none;endArrow=block;exitX=0.77;exitY=1;entryX=0;entryY=0.5;" edge="1" parent="1" source="18" target="33">
          <mxGeometry relative="1" as="geometry">
            <Array as="points">
              <mxPoint x="298" y="266" />
            </Array>
          </mxGeometry>
        </mxCell>
        <mxCell id="69" value="" style="curved=1;startArrow=none;endArrow=block;exitX=0.74;exitY=-0.01;entryX=0;entryY=0.49;" edge="1" parent="1" source="22" target="34">
          <mxGeometry relative="1" as="geometry">
            <Array as="points">
              <mxPoint x="588" y="2348" />
            </Array>
          </mxGeometry>
        </mxCell>
        <mxCell id="70" value="" style="curved=1;startArrow=none;endArrow=block;exitX=0.99;exitY=0.49;entryX=0;entryY=0.49;" edge="1" parent="1" source="22" target="35">
          <mxGeometry relative="1" as="geometry">
            <Array as="points" />
          </mxGeometry>
        </mxCell>
        <mxCell id="71" value="" style="curved=1;startArrow=none;endArrow=block;exitX=0.74;exitY=0.99;entryX=0;entryY=0.49;" edge="1" parent="1" source="22" target="36">
          <mxGeometry relative="1" as="geometry">
            <Array as="points">
              <mxPoint x="588" y="2546" />
            </Array>
          </mxGeometry>
        </mxCell>
        <mxCell id="72" value="" style="curved=1;startArrow=none;endArrow=block;exitX=0.85;exitY=-0.01;entryX=0;entryY=0.49;" edge="1" parent="1" source="23" target="37">
          <mxGeometry relative="1" as="geometry">
            <Array as="points">
              <mxPoint x="588" y="2011" />
            </Array>
          </mxGeometry>
        </mxCell>
        <mxCell id="73" value="" style="curved=1;startArrow=none;endArrow=block;exitX=1.01;exitY=0.49;entryX=0;entryY=0.49;" edge="1" parent="1" source="23" target="38">
          <mxGeometry relative="1" as="geometry">
            <Array as="points" />
          </mxGeometry>
        </mxCell>
        <mxCell id="74" value="" style="curved=1;startArrow=none;endArrow=block;exitX=0.85;exitY=0.99;entryX=0;entryY=0.49;" edge="1" parent="1" source="23" target="39">
          <mxGeometry relative="1" as="geometry">
            <Array as="points">
              <mxPoint x="588" y="2209" />
            </Array>
          </mxGeometry>
        </mxCell>
        <mxCell id="75" value="" style="curved=1;startArrow=none;endArrow=block;exitX=0.84;exitY=-0.01;entryX=0;entryY=0.49;" edge="1" parent="1" source="28" target="40">
          <mxGeometry relative="1" as="geometry">
            <Array as="points">
              <mxPoint x="588" y="1059" />
            </Array>
          </mxGeometry>
        </mxCell>
        <mxCell id="76" value="" style="curved=1;startArrow=none;endArrow=block;exitX=1;exitY=0.49;entryX=0;entryY=0.49;" edge="1" parent="1" source="28" target="41">
          <mxGeometry relative="1" as="geometry">
            <Array as="points" />
          </mxGeometry>
        </mxCell>
        <mxCell id="77" value="" style="curved=1;startArrow=none;endArrow=block;exitX=0.84;exitY=0.99;entryX=0;entryY=0.49;" edge="1" parent="1" source="28" target="42">
          <mxGeometry relative="1" as="geometry">
            <Array as="points">
              <mxPoint x="588" y="1257" />
            </Array>
          </mxGeometry>
        </mxCell>
        <mxCell id="78" value="" style="curved=1;startArrow=none;endArrow=block;exitX=0.9;exitY=-0.01;entryX=0.01;entryY=0.49;" edge="1" parent="1" source="30" target="43">
          <mxGeometry relative="1" as="geometry">
            <Array as="points">
              <mxPoint x="588" y="722" />
            </Array>
          </mxGeometry>
        </mxCell>
        <mxCell id="79" value="" style="curved=1;startArrow=none;endArrow=block;exitX=1;exitY=0.49;entryX=0;entryY=0.49;" edge="1" parent="1" source="30" target="44">
          <mxGeometry relative="1" as="geometry">
            <Array as="points" />
          </mxGeometry>
        </mxCell>
        <mxCell id="80" value="" style="curved=1;startArrow=none;endArrow=block;exitX=0.9;exitY=0.99;entryX=0;entryY=0.49;" edge="1" parent="1" source="30" target="45">
          <mxGeometry relative="1" as="geometry">
            <Array as="points">
              <mxPoint x="588" y="920" />
            </Array>
          </mxGeometry>
        </mxCell>
        <mxCell id="81" value="" style="curved=1;startArrow=none;endArrow=block;exitX=0.66;exitY=-0.01;entryX=0;entryY=0.49;" edge="1" parent="1" source="29" target="46">
          <mxGeometry relative="1" as="geometry">
            <Array as="points">
              <mxPoint x="588" y="385" />
            </Array>
          </mxGeometry>
        </mxCell>
        <mxCell id="82" value="" style="curved=1;startArrow=none;endArrow=block;exitX=1;exitY=0.49;entryX=0;entryY=0.49;" edge="1" parent="1" source="29" target="47">
          <mxGeometry relative="1" as="geometry">
            <Array as="points" />
          </mxGeometry>
        </mxCell>
        <mxCell id="83" value="" style="curved=1;startArrow=none;endArrow=block;exitX=0.66;exitY=0.99;entryX=0;entryY=0.49;" edge="1" parent="1" source="29" target="48">
          <mxGeometry relative="1" as="geometry">
            <Array as="points">
              <mxPoint x="588" y="583" />
            </Array>
          </mxGeometry>
        </mxCell>
      </root>
    </mxGraphModel>
  </diagram>
</mxfile>
